<?xml version="1.0" encoding="UTF-8" standalone="no"?>
<svg
   id="svg2"
   viewBox="0 0 64 64"
   version="1.1"
   xmlns="http://www.w3.org/2000/svg"
   xmlns:svg="http://www.w3.org/2000/svg"
   xmlns:rdf="http://www.w3.org/1999/02/22-rdf-syntax-ns#"
   xmlns:cc="http://creativecommons.org/ns#"
   xmlns:dc="http://purl.org/dc/elements/1.1/">
  <defs
     id="defs24">
    <rect
       x="69.897021"
       y="9.7638854"
       width="37.505719"
       height="50.679215"
       id="rect184" />
  </defs>
  <g
     id="layer1"
     transform="translate(0 -988.36)">
    <g
       id="g2822">
      <g
         id="g2829"
         transform="translate(0,1)">
        <path
           id="path3704"
           d="m1 995.36v51h62v-51h-62z"
           fill="#737373" />
        <path
           id="path3702"
           d="m32 996.36v49h30v-49h-30z"
           fill="#f2f2f2"
           style="fill:#1d1f21;fill-opacity:1" />
        <path
           id="path3714"
           d="m50 995.36v14l4-4 4 4v-14h-8z"
           fill="#f77462"
           style="fill:#138a07;fill-opacity:1" />
        <path
           id="path3709"
           d="m2 996.36v49h29.891v-49h-29.891z"
           fill="#6dc5dd"
           style="fill:#ffba00;fill-opacity:1" />
        <path
           id="path3783"
           d="m3 995.36v49.052l29 0.9483v-49.052l-29-0.94827z"
           fill="#f2f2f2"
           style="fill:#1d1f21;fill-opacity:1" />
        <path
           id="path3785"
           fill="#ddd"
           d="m58 996.36h4v9l-4 4v-13z"
           style="fill:#000000;fill-opacity:0.13" />
      </g>
    </g>
  </g>
  <metadata
     id="metadata19">
    <rdf:RDF>
      <cc:Work>
        <dc:format>image/svg+xml</dc:format>
        <dc:type
           rdf:resource="http://purl.org/dc/dcmitype/StillImage" />
        <cc:license
           rdf:resource="http://creativecommons.org/licenses/publicdomain/" />
        <dc:publisher>
          <cc:Agent
             rdf:about="http://openclipart.org/">
            <dc:title>Openclipart</dc:title>
          </cc:Agent>
        </dc:publisher>
        <dc:date>2013-08-28T22:06:41</dc:date>
        <dc:description>open book with bookmark top right</dc:description>
        <dc:source>https://openclipart.org/detail/182527/book-open-by-crisg-182527</dc:source>
        <dc:creator>
          <cc:Agent>
            <dc:title>crisg</dc:title>
          </cc:Agent>
        </dc:creator>
        <dc:subject>
          <rdf:Bag>
            <rdf:li>book</rdf:li>
            <rdf:li>bookmark</rdf:li>
            <rdf:li>icon</rdf:li>
            <rdf:li>learning</rdf:li>
            <rdf:li>office</rdf:li>
            <rdf:li>open book</rdf:li>
            <rdf:li>reading</rdf:li>
            <rdf:li>study</rdf:li>
          </rdf:Bag>
        </dc:subject>
      </cc:Work>
      <cc:License
         rdf:about="http://creativecommons.org/licenses/publicdomain/">
        <cc:permits
           rdf:resource="http://creativecommons.org/ns#Reproduction" />
        <cc:permits
           rdf:resource="http://creativecommons.org/ns#Distribution" />
        <cc:permits
           rdf:resource="http://creativecommons.org/ns#DerivativeWorks" />
      </cc:License>
    </rdf:RDF>
  </metadata>
  <g
     id="g13693"
     transform="matrix(0.9946125,0,0,0.9946125,32,31.157896)">
    <rect
       style="fill:#1d1f21;fill-opacity:1;stroke-width:0.456858"
       id="rect12875"
       width="30.1625"
       height="26.987499"
       x="-6.357829e-07"
       y="1.3796372e-14" />
    <rect
       style="fill:#b5bd68;fill-opacity:1;stroke-width:0.156529"
       id="rect9827"
       width="5.5562501"
       height="3.9687502"
       x="1.8520833"
       y="1.8520833" />
    <rect
       style="fill:#b5bd68;fill-opacity:1;stroke-width:0.264583"
       id="rect11333"
       width="1.8520833"
       height="3.96875"
       x="11.377083"
       y="1.8520833" />
    <rect
       style="fill:#b5bd68;fill-opacity:1;stroke-width:0.264583"
       id="rect11335"
       width="7.6729164"
       height="3.96875"
       x="15.08125"
       y="1.8520833" />
    <rect
       style="fill:#b5bd68;fill-opacity:1;stroke-width:0.264583"
       id="rect11345"
       width="1.8520833"
       height="3.96875"
       x="1.8520833"
       y="6.614583" />
    <rect
       style="fill:#b5bd68;fill-opacity:1;stroke-width:0.264583"
       id="rect11347"
       width="2.1166666"
       height="3.96875"
       x="7.4083333"
       y="6.614583" />
    <rect
       style="fill:#b5bd68;fill-opacity:1;stroke-width:0.264583"
       id="rect11349"
       width="13.229166"
       height="3.96875"
       x="1.8520833"
       y="11.377083" />
    <rect
       style="fill:#b5bd68;fill-opacity:1;stroke-width:0.264583"
       id="rect11351"
       width="5.5562501"
       height="3.96875"
       x="1.8520833"
       y="16.139584" />
    <rect
       style="fill:#b5bd68;fill-opacity:1;stroke-width:0.264583"
       id="rect11353"
       width="22.754166"
       height="3.96875"
       x="1.8520833"
       y="21.166666" />
    <rect
       style="fill:#c4c7c5;fill-opacity:1;stroke-width:0.264583"
       id="rect12863"
       width="1.8520833"
       height="3.96875"
       x="9.5249996"
       y="1.8520833" />
    <rect
       style="fill:#c4c7c5;fill-opacity:1;stroke-width:0.264583"
       id="rect12865"
       width="3.7041667"
       height="3.96875"
       x="24.606249"
       y="1.8520833" />
    <rect
       style="fill:#c4c7c5;fill-opacity:1;stroke-width:0.264583"
       id="rect12867"
       width="1.8520833"
       height="3.96875"
       x="5.5562501"
       y="6.614583" />
    <rect
       style="fill:#c4c7c5;fill-opacity:1;stroke-width:0.264583"
       id="rect12869"
       width="9.5249996"
       height="3.96875"
       x="11.377083"
       y="6.614583" />
    <rect
       style="fill:#c4c7c5;fill-opacity:1;stroke-width:0.264583"
       id="rect12871"
       width="9.5249996"
       height="3.96875"
       x="15.08125"
       y="11.377083" />
    <rect
       style="fill:#c4c7c5;fill-opacity:1;stroke-width:0.264583"
       id="rect12873"
       width="9.5249996"
       height="3.96875"
       x="7.4083333"
       y="16.139584" />
  </g>
  <g
     id="g3191"
     transform="matrix(3.7795276,0,0,3.7795276,-101,-33.923571)">
    <path
       style="fill:#202124;fill-opacity:1;stroke-width:0.320264"
       id="rect1722"
       width="22.754168"
       height="36.512501"
       x="-1.7763568e-15"
       y="-3.5527137e-15"
       d="m 27.78125,10.827695 7.408333,0.515487 V 24.321524 L 27.78125,23.806036 Z" />
    <path
       style="fill:#e8eaed;fill-opacity:1;stroke-width:0.371242"
       id="rect1158"
       width="5.5562501"
       height="3.96875"
       x="1.8520833"
       y="1.8520833"
       d="m 28.384254,11.527975 1.809011,0.125875 v 1.410689 l -1.809011,-0.125875 z" />
    <path
       style="fill:#e8eaed;fill-opacity:1;stroke-width:0.264583"
       id="rect1696"
       width="1.8520833"
       height="3.96875"
       x="9.5249987"
       y="1.8520833"
       d="m 30.882412,11.701802 0.603004,0.04196 0,1.410689 -0.603004,-0.04196 z" />
    <path
       style="fill:#e8eaed;fill-opacity:1;stroke-width:0.264583"
       id="rect1698"
       width="7.6729164"
       height="3.96875"
       x="13.229165"
       y="1.8520833"
       d="m 32.08842,11.785718 2.498158,0.173827 v 1.41069 L 32.08842,13.196408 Z" />
    <path
       style="fill:#e8eaed;fill-opacity:1;stroke-width:0.264583"
       id="rect1700"
       width="1.8520833"
       height="3.96875"
       x="1.8520831"
       y="11.641665"
       d="m 28.384254,15.007675 0.603003,0.04196 v 1.410689 l -0.603003,-0.04196 z" />
    <path
       style="fill:#e8eaed;fill-opacity:1;stroke-width:0.264583"
       id="rect1702"
       width="1.8520833"
       height="3.96875"
       x="5.5562501"
       y="11.641665"
       d="m 29.590261,15.091591 0.603004,0.04196 0,1.41069 -0.603004,-0.04196 z" />
    <path
       style="fill:#e8eaed;fill-opacity:1;stroke-width:0.264583"
       id="rect1704"
       width="7.4083333"
       height="3.96875"
       x="9.5249987"
       y="11.641665"
       d="m 30.882412,15.181502 2.412015,0.167833 v 1.410689 l -2.412015,-0.167833 z" />
    <path
       style="fill:#e8eaed;fill-opacity:1;stroke-width:0.264583"
       id="rect1706"
       width="1.8520833"
       height="3.96875"
       x="1.8520831"
       y="16.404165"
       d="m 28.384254,16.700502 0.603003,0.04196 v 1.410689 l -0.603003,-0.04196 z" />
    <path
       style="fill:#e8eaed;fill-opacity:1;stroke-width:0.264583"
       id="rect1708"
       width="5.8208332"
       height="3.96875"
       x="5.5562501"
       y="16.404165"
       d="m 29.590261,16.784418 1.895155,0.131869 0,1.410689 -1.895155,-0.131869 z" />
    <path
       style="fill:#e8eaed;fill-opacity:1;stroke-width:0.264583"
       id="rect1710"
       width="1.8520833"
       height="3.96875"
       x="13.229165"
       y="16.404165"
       d="m 32.08842,16.958245 0.603003,0.04196 0,1.41069 -0.603003,-0.04196 z" />
    <path
       style="fill:#e8eaed;fill-opacity:1;stroke-width:0.264583"
       id="rect1712"
       width="11.377083"
       height="3.96875"
       x="1.8520831"
       y="21.166666"
       d="m 28.384254,18.393329 3.704166,0.257744 v 1.410689 l -3.704166,-0.257744 z" />
    <path
       style="fill:#e8eaed;fill-opacity:1;stroke-width:0.264583"
       id="rect1714"
       width="1.8520833"
       height="3.96875"
       x="15.081249"
       y="21.166666"
       d="m 32.691424,18.693031 0.603003,0.04196 0,1.410689 -0.603003,-0.04196 z" />
    <path
       style="fill:#e8eaed;fill-opacity:1;stroke-width:0.264583"
       id="rect1716"
       width="13.229166"
       height="3.96875"
       x="1.8520831"
       y="25.929167"
       d="m 28.384254,20.086156 4.30717,0.299702 0,1.41069 -4.30717,-0.299703 z" />
    <path
       style="fill:#e8eaed;fill-opacity:1;stroke-width:0.264583"
       id="rect1718"
       width="1.8520833"
       height="3.96875"
       x="1.8520831"
       y="30.691664"
       d="m 28.384254,21.778982 0.603003,0.04196 v 1.41069 l -0.603003,-0.04196 z" />
    <path
       style="fill:#e8eaed;fill-opacity:1;stroke-width:0.264583"
       id="rect1720"
       width="9.5249996"
       height="3.96875"
       x="5.5562501"
       y="30.691664"
       d="m 29.590261,21.862899 3.101163,0.215785 0,1.41069 -3.101163,-0.215786 z" />
  </g>
</svg>
